<?xml version="1.0" encoding="UTF-8" standalone="no"?><!DOCTYPE svg PUBLIC "-//W3C//DTD SVG 1.1//EN" "http://www.w3.org/Graphics/SVG/1.1/DTD/svg11.dtd"><svg width="100%" height="100%" viewBox="0 0 16 16" version="1.1" xmlns="http://www.w3.org/2000/svg" xmlns:xlink="http://www.w3.org/1999/xlink" xml:space="preserve" xmlns:serif="http://www.serif.com/" style="fill-rule:evenodd;clip-rule:evenodd;stroke-linejoin:round;stroke-miterlimit:2;"><rect id="zoom-out" x="0" y="0" width="16" height="16" style="fill:none;"/><path d="M12.021,6.149c0.094,1.418 -0.36,2.818 -1.27,3.908l4.26,4.26l-0.71,0.71l-4.25,-4.27c-0.993,0.829 -2.245,1.283 -3.538,1.283c-3.028,0 -5.52,-2.492 -5.52,-5.52c0,-3.028 2.492,-5.52 5.52,-5.52c2.888,0 5.314,2.267 5.508,5.149Zm-5.45,4.888c1.192,-0.002 2.336,-0.477 3.18,-1.32l-0.04,0.02c0.862,-0.841 1.352,-1.994 1.36,-3.2c0,-2.468 -2.032,-4.5 -4.5,-4.5c-2.468,0 -4.5,2.032 -4.5,4.5c0,2.469 2.032,4.5 4.5,4.5Zm2.929,-4l-5.897,0l0,1l5.897,0l0,-1Z"/></svg>

