<?xml version="1.0" encoding="UTF-8" standalone="no"?><!DOCTYPE svg PUBLIC "-//W3C//DTD SVG 1.1//EN" "http://www.w3.org/Graphics/SVG/1.1/DTD/svg11.dtd"><svg width="100%" height="100%" viewBox="0 0 16 16" version="1.1" xmlns="http://www.w3.org/2000/svg" xmlns:xlink="http://www.w3.org/1999/xlink" xml:space="preserve" xmlns:serif="http://www.serif.com/" style="fill-rule:evenodd;clip-rule:evenodd;stroke-linejoin:round;stroke-miterlimit:2;"><rect id="zoom-fit" x="0" y="0" width="16" height="16" style="fill:none;"/><path d="m5,4l0,1l-2.5,0l0,2.5l-1,0l0,-3c0,-0.552 0.448,-1 1,-1l3,0l0,0.5Z"/><path d="m6,5.5l0,-1c-0,-0.276 0.224,-0.5 0.5,-0.5l3.5,-0l0,-1l-4.5,0c-0.552,-0 -1,0.448 -1,1l-0,1l0,-0.5l1,0Z"/><path d="m11,4.5l-0,1l3,0l0,3l-1,0l0,-2l-2,0l0,2l-1,0l0,-2.5c0,-0.276 0.224,-0.5 0.5,-0.5l0.5,0Z"/><path d="m5,11.5l0,1l-3,0l0,-3l1,-0l-0,2l2,-0l-0,-2l1,-0l0,2.5c-0,0.276 -0.224,0.5 -0.5,0.5l-0.5,-0Z"/><path d="m11,11l0,-1l2.5,0l0,-2.5l1,0l0,3c0,0.552 -0.448,1 -1,1l-3,-0l0,-0.5Z"/><path d="m10,9.5l0,1c-0,0.276 -0.224,0.5 -0.5,0.5l-3.5,0l0,1l4.5,0c0.552,0 1,-0.448 1,-1l0,-1l0,0.5l-1,0Z"/><path d="m8,11.5l-0,-7l1,-0l0,7l-1,0Z"/><path d="m11.5,8l-7,-0l-0,-1l7,-0l0,1Z"/></svg>

